<svg xmlns="http://www.w3.org/2000/svg" xmlns:xlink="http://www.w3.org/1999/xlink" contentStyleType="text/css" data-diagram-type="CLASS" height="495px" preserveAspectRatio="none" style="width:1011px;height:495px;background:#1B1B1B;" version="1.1" viewBox="0 0 1011 495" width="1011px" zoomAndPan="magnify"><defs/><g><rect fill="#1B1B1B" height="495" style="stroke:none;stroke-width:1;" width="1011" x="0" y="0"/><!--class BowlingGame--><g class="entity" data-entity="BowlingGame" data-source-line="1" data-uid="ent0002" id="entity_BowlingGame"><rect fill="#313139" height="276.1563" rx="2.5" ry="2.5" style="stroke:#E7E7E7;stroke-width:0.5;" width="433.2852" x="309.91" y="7"/><ellipse cx="473.8836" cy="23" fill="#2E5233" rx="11" ry="11" style="stroke:#E7E7E7;stroke-width:1;"/><path d="M476.8524,28.6406 Q476.2743,28.9375 475.6336,29.0781 Q474.993,29.2344 474.2899,29.2344 Q471.7899,29.2344 470.4618,27.5938 Q469.1493,25.9375 469.1493,22.8125 Q469.1493,19.6875 470.4618,18.0313 Q471.7899,16.375 474.2899,16.375 Q474.993,16.375 475.6336,16.5313 Q476.2899,16.6875 476.8524,16.9844 L476.8524,19.7031 Q476.2274,19.125 475.6336,18.8594 Q475.0399,18.5781 474.4149,18.5781 Q473.0711,18.5781 472.3836,19.6563 Q471.6961,20.7188 471.6961,22.8125 Q471.6961,24.9063 472.3836,25.9844 Q473.0711,27.0469 474.4149,27.0469 Q475.0399,27.0469 475.6336,26.7813 Q476.2274,26.5 476.8524,25.9219 L476.8524,28.6406 Z " fill="#FFFFFF"/><text fill="#FFFFFF" font-family="sans-serif" font-size="14" lengthAdjust="spacing" textLength="96.8379" x="494.3836" y="27.8467">BowlingGame</text><line style="stroke:#E7E7E7;stroke-width:0.5;" x1="310.91" x2="742.1952" y1="39" y2="39"/><rect fill="none" height="6" style="stroke:#C82930;stroke-width:1;" width="6" x="317.91" y="49.6484"/><text fill="#FFFFFF" font-family="sans-serif" font-size="14" lengthAdjust="spacing" textLength="280.123" x="329.91" y="55.9951">std::unique_ptr&lt;Counters_t&gt; Counters_</text><rect fill="none" height="6" style="stroke:#C82930;stroke-width:1;" width="6" x="317.91" y="65.9453"/><text fill="#FFFFFF" font-family="sans-serif" font-size="14" lengthAdjust="spacing" textLength="315.1641" x="329.91" y="72.292">std::unique_ptr&lt;Parameters_t&gt; Parameters_</text><rect fill="none" height="6" style="stroke:#C82930;stroke-width:1;" width="6" x="317.91" y="82.2422"/><text fill="#FFFFFF" font-family="sans-serif" font-size="14" lengthAdjust="spacing" textLength="407.2852" x="329.91" y="88.5889">std::vector&lt;std::pair&lt;size_t, size_t&gt;&gt; knockedDownPins_</text><line style="stroke:#E7E7E7;stroke-width:0.5;" x1="310.91" x2="742.1952" y1="95.8906" y2="95.8906"/><rect fill="#F24D5C" height="6" style="stroke:#C82930;stroke-width:1;" width="6" x="317.91" y="106.5391"/><text fill="#FFFFFF" font-family="sans-serif" font-size="14" lengthAdjust="spacing" textLength="320.3389" x="329.91" y="112.8857">bool isStrike(const std::pair&lt;size_t, size_t&gt;&amp;)</text><rect fill="#F24D5C" height="6" style="stroke:#C82930;stroke-width:1;" width="6" x="317.91" y="122.8359"/><text fill="#FFFFFF" font-family="sans-serif" font-size="14" lengthAdjust="spacing" textLength="320.3184" x="329.91" y="129.1826">bool isSpare(const std::pair&lt;size_t, size_t&gt;&amp;)</text><rect fill="#F24D5C" height="6" style="stroke:#C82930;stroke-width:1;" width="6" x="317.91" y="139.1328"/><text fill="#FFFFFF" font-family="sans-serif" font-size="14" lengthAdjust="spacing" textLength="146.0703" x="329.91" y="145.4795">void frameIncrease()</text><rect fill="#F24D5C" height="6" style="stroke:#C82930;stroke-width:1;" width="6" x="317.91" y="155.4297"/><text fill="#FFFFFF" font-family="sans-serif" font-size="14" lengthAdjust="spacing" textLength="126.6563" x="329.91" y="161.7764">void rollIncrease()</text><rect fill="#F24D5C" height="6" style="stroke:#C82930;stroke-width:1;" width="6" x="317.91" y="171.7266"/><text fill="#FFFFFF" font-family="sans-serif" font-size="14" lengthAdjust="spacing" textLength="124.749" x="329.91" y="178.0732">bool isGameEnd()</text><rect fill="#F24D5C" height="6" style="stroke:#C82930;stroke-width:1;" width="6" x="317.91" y="188.0234"/><text fill="#FFFFFF" font-family="sans-serif" font-size="14" lengthAdjust="spacing" textLength="108.0215" x="329.91" y="194.3701">int pointsSum()</text><ellipse cx="320.91" cy="207.3203" fill="#84BE84" rx="3" ry="3" style="stroke:#038048;stroke-width:1;"/><text fill="#FFFFFF" font-family="sans-serif" font-size="14" lengthAdjust="spacing" textLength="106.7363" x="329.91" y="210.667">void roll(size_t)</text><ellipse cx="320.91" cy="223.6172" fill="#84BE84" rx="3" ry="3" style="stroke:#038048;stroke-width:1;"/><text fill="#FFFFFF" font-family="sans-serif" font-size="14" lengthAdjust="spacing" textLength="138.5029" x="329.91" y="226.9639">int getScore() const</text><ellipse cx="320.91" cy="239.9141" fill="#84BE84" rx="3" ry="3" style="stroke:#038048;stroke-width:1;"/><text fill="#FFFFFF" font-family="sans-serif" font-size="14" lengthAdjust="spacing" textLength="178.9238" x="329.91" y="243.2607">bool getGameEnd() const</text><ellipse cx="320.91" cy="256.2109" fill="#84BE84" rx="3" ry="3" style="stroke:#038048;stroke-width:1;"/><text fill="#FFFFFF" font-family="sans-serif" font-size="14" lengthAdjust="spacing" textLength="107.7617" x="329.91" y="259.5576">BowlingGame()</text><ellipse cx="320.91" cy="272.5078" fill="#84BE84" rx="3" ry="3" style="stroke:#038048;stroke-width:1;"/><text fill="#FFFFFF" font-family="sans-serif" font-size="14" lengthAdjust="spacing" textLength="119.4922" x="329.91" y="275.8545">~BowlingGame()</text></g><!--class PinsKoRangeError--><g class="entity" data-entity="PinsKoRangeError" data-source-line="18" data-uid="ent0003" id="entity_PinsKoRangeError"><rect fill="#313139" height="64.2969" rx="2.5" ry="2.5" style="stroke:#E7E7E7;stroke-width:0.5;" width="287.1055" x="7" y="383.9"/><ellipse cx="83.501" cy="399.9" fill="#313139" rx="11" ry="11" style="stroke:#E7E7E7;stroke-width:1;"/><path d="M82.9854,400.4625 Q81.126,399.7594 80.4697,398.9938 Q79.8291,398.2125 79.8291,396.9 Q79.8291,395.2125 80.9072,394.2438 Q81.9854,393.275 83.8604,393.275 Q84.7197,393.275 85.5635,393.4781 Q86.4229,393.6656 87.2666,394.0563 L87.2666,396.4469 Q86.4854,395.8844 85.6572,395.6031 Q84.8447,395.3063 84.0479,395.3063 Q83.1729,395.3063 82.6885,395.6656 Q82.2197,396.025 82.2197,396.6813 Q82.2197,397.1969 82.5635,397.5406 Q82.9072,397.8688 84.001,398.275 L85.0635,398.6813 Q86.5479,399.2281 87.251,400.1344 Q87.9697,401.0406 87.9697,402.4156 Q87.9697,404.2906 86.8604,405.2125 Q85.751,406.1344 83.501,406.1344 Q82.5791,406.1344 81.6572,405.9156 Q80.7354,405.6969 79.876,405.275 L79.876,402.7438 Q80.8447,403.4313 81.7666,403.775 Q82.6885,404.1188 83.5791,404.1188 Q84.4854,404.1188 84.9854,403.7125 Q85.4854,403.2906 85.4854,402.5563 Q85.4854,401.9938 85.1416,401.5875 Q84.8135,401.1656 84.1885,400.9156 L82.9854,400.4625 Z " fill="#FFFFFF"/><text fill="#FFFFFF" font-family="sans-serif" font-size="14" lengthAdjust="spacing" textLength="125.6035" x="104.001" y="404.7467">PinsKoRangeError</text><line style="stroke:#E7E7E7;stroke-width:0.5;" x1="8" x2="293.1055" y1="415.9" y2="415.9"/><line style="stroke:#E7E7E7;stroke-width:0.5;" x1="8" x2="293.1055" y1="423.9" y2="423.9"/><ellipse cx="18" cy="437.5484" fill="#84BE84" rx="3" ry="3" style="stroke:#038048;stroke-width:1;"/><text fill="#FFFFFF" font-family="sans-serif" font-size="14" lengthAdjust="spacing" textLength="261.1055" x="27" y="440.8951">PinsKoRangeError(std::string const&amp;)</text></g><!--class Counters_t--><g class="entity" data-entity="Counters_t" data-source-line="22" data-uid="ent0004" id="entity_Counters_t"><rect fill="#313139" height="145.7813" rx="2.5" ry="2.5" style="stroke:#E7E7E7;stroke-width:0.5;" width="394.7646" x="329.17" y="343.16"/><ellipse cx="484.4381" cy="359.16" fill="#313139" rx="11" ry="11" style="stroke:#E7E7E7;stroke-width:1;"/><path d="M483.9224,359.7225 Q482.0631,359.0194 481.4068,358.2538 Q480.7662,357.4725 480.7662,356.16 Q480.7662,354.4725 481.8443,353.5038 Q482.9224,352.535 484.7974,352.535 Q485.6568,352.535 486.5006,352.7381 Q487.3599,352.9256 488.2037,353.3163 L488.2037,355.7069 Q487.4224,355.1444 486.5943,354.8631 Q485.7818,354.5663 484.9849,354.5663 Q484.1099,354.5663 483.6256,354.9256 Q483.1568,355.285 483.1568,355.9413 Q483.1568,356.4569 483.5006,356.8006 Q483.8443,357.1288 484.9381,357.535 L486.0006,357.9413 Q487.4849,358.4881 488.1881,359.3944 Q488.9068,360.3006 488.9068,361.6756 Q488.9068,363.5506 487.7974,364.4725 Q486.6881,365.3944 484.4381,365.3944 Q483.5162,365.3944 482.5943,365.1756 Q481.6724,364.9569 480.8131,364.535 L480.8131,362.0038 Q481.7818,362.6913 482.7037,363.035 Q483.6256,363.3788 484.5162,363.3788 Q485.4224,363.3788 485.9224,362.9725 Q486.4224,362.5506 486.4224,361.8163 Q486.4224,361.2538 486.0787,360.8475 Q485.7506,360.4256 485.1256,360.1756 L483.9224,359.7225 Z " fill="#FFFFFF"/><text fill="#FFFFFF" font-family="sans-serif" font-size="14" lengthAdjust="spacing" textLength="75.7285" x="504.9381" y="364.0067">Counters_t</text><line style="stroke:#E7E7E7;stroke-width:0.5;" x1="330.17" x2="722.9346" y1="375.16" y2="375.16"/><ellipse cx="340.17" cy="388.8084" fill="none" rx="3" ry="3" style="stroke:#038048;stroke-width:1;"/><text fill="#FFFFFF" font-family="sans-serif" font-size="14" lengthAdjust="spacing" textLength="122.1309" x="349.17" y="392.1551">size_t rollCounter</text><ellipse cx="340.17" cy="405.1053" fill="none" rx="3" ry="3" style="stroke:#038048;stroke-width:1;"/><text fill="#FFFFFF" font-family="sans-serif" font-size="14" lengthAdjust="spacing" textLength="141.5449" x="349.17" y="408.452">size_t frameCounter</text><ellipse cx="340.17" cy="421.4022" fill="none" rx="3" ry="3" style="stroke:#038048;stroke-width:1;"/><text fill="#FFFFFF" font-family="sans-serif" font-size="14" lengthAdjust="spacing" textLength="115.6162" x="349.17" y="424.7489">size_t totalScore</text><ellipse cx="340.17" cy="437.6991" fill="none" rx="3" ry="3" style="stroke:#038048;stroke-width:1;"/><text fill="#FFFFFF" font-family="sans-serif" font-size="14" lengthAdjust="spacing" textLength="99.8594" x="349.17" y="441.0457">size_t pinsLeft</text><ellipse cx="340.17" cy="453.9959" fill="none" rx="3" ry="3" style="stroke:#038048;stroke-width:1;"/><text fill="#FFFFFF" font-family="sans-serif" font-size="14" lengthAdjust="spacing" textLength="368.7646" x="349.17" y="457.3426">std::pair&lt;size_t, size_t&gt; knockedDownPinsPerFrame</text><ellipse cx="340.17" cy="470.2928" fill="none" rx="3" ry="3" style="stroke:#038048;stroke-width:1;"/><text fill="#FFFFFF" font-family="sans-serif" font-size="14" lengthAdjust="spacing" textLength="100.6797" x="349.17" y="473.6395">bool gameEnd</text><line style="stroke:#E7E7E7;stroke-width:0.5;" x1="330.17" x2="722.9346" y1="480.9413" y2="480.9413"/></g><!--class Parameters_t--><g class="entity" data-entity="Parameters_t" data-source-line="31" data-uid="ent0005" id="entity_Parameters_t"><rect fill="#313139" height="113.1875" rx="2.5" ry="2.5" style="stroke:#E7E7E7;stroke-width:0.5;" width="246.0693" x="758.52" y="359.46"/><ellipse cx="830.6802" cy="375.46" fill="#313139" rx="11" ry="11" style="stroke:#E7E7E7;stroke-width:1;"/><path d="M830.1645,376.0225 Q828.3052,375.3194 827.6489,374.5538 Q827.0083,373.7725 827.0083,372.46 Q827.0083,370.7725 828.0864,369.8038 Q829.1645,368.835 831.0395,368.835 Q831.8989,368.835 832.7427,369.0381 Q833.602,369.2256 834.4458,369.6163 L834.4458,372.0069 Q833.6645,371.4444 832.8364,371.1631 Q832.0239,370.8663 831.227,370.8663 Q830.352,370.8663 829.8677,371.2256 Q829.3989,371.585 829.3989,372.2413 Q829.3989,372.7569 829.7427,373.1006 Q830.0864,373.4288 831.1802,373.835 L832.2427,374.2413 Q833.727,374.7881 834.4302,375.6944 Q835.1489,376.6006 835.1489,377.9756 Q835.1489,379.8506 834.0395,380.7725 Q832.9302,381.6944 830.6802,381.6944 Q829.7583,381.6944 828.8364,381.4756 Q827.9145,381.2569 827.0552,380.835 L827.0552,378.3038 Q828.0239,378.9913 828.9458,379.335 Q829.8677,379.6788 830.7583,379.6788 Q831.6645,379.6788 832.1645,379.2725 Q832.6645,378.8506 832.6645,378.1163 Q832.6645,377.5538 832.3208,377.1475 Q831.9927,376.7256 831.3677,376.4756 L830.1645,376.0225 Z " fill="#FFFFFF"/><text fill="#FFFFFF" font-family="sans-serif" font-size="14" lengthAdjust="spacing" textLength="93.249" x="851.1802" y="380.3067">Parameters_t</text><line style="stroke:#E7E7E7;stroke-width:0.5;" x1="759.52" x2="1003.5893" y1="391.46" y2="391.46"/><ellipse cx="769.52" cy="405.1084" fill="none" rx="3" ry="3" style="stroke:#038048;stroke-width:1;"/><text fill="#FFFFFF" font-family="sans-serif" font-size="14" lengthAdjust="spacing" textLength="159.6123" x="778.52" y="408.4551">size_t pinsMaxInFrame</text><ellipse cx="769.52" cy="421.4053" fill="none" rx="3" ry="3" style="stroke:#038048;stroke-width:1;"/><text fill="#FFFFFF" font-family="sans-serif" font-size="14" lengthAdjust="spacing" textLength="220.0693" x="778.52" y="424.752">size_t framesMaxWithoutBonus</text><ellipse cx="769.52" cy="437.7022" fill="none" rx="3" ry="3" style="stroke:#038048;stroke-width:1;"/><text fill="#FFFFFF" font-family="sans-serif" font-size="14" lengthAdjust="spacing" textLength="197.1416" x="778.52" y="441.0489">size_t framesMaxWithBonus</text><ellipse cx="769.52" cy="453.9991" fill="none" rx="3" ry="3" style="stroke:#038048;stroke-width:1;"/><text fill="#FFFFFF" font-family="sans-serif" font-size="14" lengthAdjust="spacing" textLength="160.0635" x="778.52" y="457.3457">size_t rollsInFrameMax</text><line style="stroke:#E7E7E7;stroke-width:0.5;" x1="759.52" x2="1003.5893" y1="464.6475" y2="464.6475"/></g><!--reverse link BowlingGame to Parameters_t--><g class="link" data-entity-1="BowlingGame" data-entity-2="Parameters_t" data-source-line="39" data-uid="lnk6" id="link_BowlingGame_Parameters_t"><path codeLine="39" d="M717.5151,290.7662 C752.8651,317.5462 778.44,336.93 807.77,359.15" fill="none" id="BowlingGame-backto-Parameters_t" style="stroke:#E7E7E7;stroke-width:1;"/><polygon fill="#E7E7E7" points="707.95,283.52,710.3172,290.3315,717.5151,290.7662,715.148,283.9547,707.95,283.52" style="stroke:#E7E7E7;stroke-width:1;"/></g><!--reverse link BowlingGame to Counters_t--><g class="link" data-entity-1="BowlingGame" data-entity-2="Counters_t" data-source-line="40" data-uid="lnk7" id="link_BowlingGame_Counters_t"><path codeLine="40" d="M526.55,295.32 C526.55,315.92 526.55,324.42 526.55,342.91" fill="none" id="BowlingGame-backto-Counters_t" style="stroke:#E7E7E7;stroke-width:1;"/><polygon fill="#E7E7E7" points="526.55,283.32,522.55,289.32,526.55,295.32,530.55,289.32,526.55,283.32" style="stroke:#E7E7E7;stroke-width:1;"/></g><!--reverse link BowlingGame to PinsKoRangeError--><g class="link" data-entity-1="BowlingGame" data-entity-2="PinsKoRangeError" data-source-line="41" data-uid="lnk8" id="link_BowlingGame_PinsKoRangeError"><path codeLine="41" d="M324.6601,290.5017 C272.2101,328.0217 229.95,358.25 194.7,383.47" fill="none" id="BowlingGame-backto-PinsKoRangeError" style="stroke:#E7E7E7;stroke-width:1;"/><polygon fill="#E7E7E7" points="334.42,283.52,327.2128,283.7576,324.6601,290.5017,331.8673,290.2642,334.42,283.52" style="stroke:#E7E7E7;stroke-width:1;"/></g><!--SRC=[ZLF1Ri8m3BttAtn2POmVGAW7DZQXRH8QXnrHbWOMKU8kSM0QshvzITD2Ma1Q3pJusS_FBoulc34mmNqXrVgHRGKS4d3Fq50-6babFwrObgJ7TsWL2MsMbC7nV3brphGZQfAZVr7wJd12FQxE9PFk9B_5acuXlBCCDWhvHkJtk5TpgPhYTyG2f5cGbXkHSbI6u2f9hzykAfd-TyqEPGuhBtsck1RCY3H6D1P55wZRU1UdAc-YKX6Kw7xDmcxhuE38aOQsTTZdhWKjE3gXVQYa1gJYTj2HF0QZwsiQ_BPZFqbYI5jEuBrymbUcrcAgDMeuGAZe0cbbaQjoBA5Ph-yJ8I8xBKMzDeCmJZLQ3RRYbQ6N049YHJLtArmwKSzYLSzvzTAwop8N-i5tYhqBniLEH6lQaU_Rlh2lcOfOuWay-2Rf0orDK5bpFUCSzjQOcjabUK59_FtT38SjQMVWoVJpkiuT_W40]--></g></svg>